<?xml version="1.0" encoding="iso-8859-1"?>
<!-- Generator: Adobe Illustrator 19.0.0, SVG Export Plug-In . SVG Version: 6.00 Build 0)  -->
<svg version="1.1" id="Capa_1" xmlns="http://www.w3.org/2000/svg" xmlns:xlink="http://www.w3.org/1999/xlink" x="0px" y="0px"
	 viewBox="0 0 512 512" style="enable-background:new 0 0 512 512;" xml:space="preserve">
<path style="fill:#FFC107;" d="M426.667,147.477V32c0-17.673-14.327-32-32-32H117.333c-17.673,0-32,14.327-32,32v115.477
	c0.003,2.682,1.016,5.264,2.837,7.232C113.762,182.232,127.991,218.418,128,256c-0.009,37.582-14.238,73.768-39.829,101.291
	c-1.821,1.968-2.834,4.55-2.837,7.232V480c0,17.673,14.327,32,32,32h277.333c17.673,0,32-14.327,32-32V364.523
	c-0.003-2.682-1.016-5.264-2.837-7.232c-53.178-57.09-53.178-145.576,0-202.667C425.631,152.677,426.642,150.129,426.667,147.477z"
	/>
<path style="fill:#B0BEC5;" d="M341.333,149.333v352c0,5.891-4.776,10.667-10.667,10.667h-53.333V66.773
	C315.022,76.442,341.365,110.425,341.333,149.333z"/>
<path style="fill:#CFD8DC;" d="M277.333,66.773V512h-96c-5.891,0-10.667-4.776-10.667-10.667v-352
	C170.667,102.205,208.872,64,256,64C263.205,63.935,270.384,64.868,277.333,66.773z"/>
<circle style="fill:#455A64;" cx="234.667" cy="277.333" r="21.333"/>
<path d="M330.667,512H181.333c-5.891,0-10.667-4.776-10.667-10.667v-352C170.667,102.205,208.872,64,256,64
	s85.333,38.205,85.333,85.333v352C341.333,507.224,336.558,512,330.667,512z M192,490.667h128V149.333c0-35.346-28.654-64-64-64
	s-64,28.654-64,64V490.667z"/>
<path d="M288,512c-5.891,0-10.667-4.776-10.667-10.667v-416c0-5.891,4.776-10.667,10.667-10.667c5.891,0,10.667,4.776,10.667,10.667
	v416C298.667,507.224,293.891,512,288,512z"/>
<path d="M234.667,298.667c-11.782,0-21.333-9.551-21.333-21.333S222.885,256,234.667,256S256,265.551,256,277.333
	S246.449,298.667,234.667,298.667z"/>
<path d="M394.667,512H117.333c-17.673,0-32-14.327-32-32V364.523c0.003-2.682,1.016-5.264,2.837-7.232
	C113.762,329.768,127.991,293.582,128,256c-0.009-37.582-14.238-73.768-39.829-101.291c-1.821-1.968-2.834-4.55-2.837-7.232V32
	c0-17.673,14.327-32,32-32h277.333c17.673,0,32,14.327,32,32v115.477c-0.003,2.682-1.016,5.264-2.837,7.232
	c-53.178,57.09-53.178,145.576,0,202.667c1.821,1.968,2.834,4.55,2.837,7.232V480C426.667,497.673,412.34,512,394.667,512z
	 M106.667,368.619V480c0,5.891,4.776,10.667,10.667,10.667h277.333c5.891,0,10.667-4.776,10.667-10.667V368.619
	c-56.879-64.306-56.879-160.931,0-225.237V32c0-5.891-4.776-10.667-10.667-10.667H117.333c-5.891,0-10.667,4.776-10.667,10.667
	v111.381c27.486,31.077,42.661,71.131,42.667,112.619C149.327,297.488,134.152,337.542,106.667,368.619z"/>
<g>
</g>
<g>
</g>
<g>
</g>
<g>
</g>
<g>
</g>
<g>
</g>
<g>
</g>
<g>
</g>
<g>
</g>
<g>
</g>
<g>
</g>
<g>
</g>
<g>
</g>
<g>
</g>
<g>
</g>
</svg>
